<svg version="1.2" baseProfile="tiny-ps" xmlns="http://www.w3.org/2000/svg" viewBox="0 0 1500 1000" width="1500" height="1000">
	<title>2833679-ai</title>
	<style>
		tspan { white-space:pre }
		.shp0 { fill: #8b77e6 } 
		.shp1 { fill: #d1d2fd } 
		.shp2 { fill: #bbbbf6 } 
		.shp3 { fill: #f4f5f9 } 
		.shp4 { fill: #645193 } 
		.shp5 { fill: #e6e6f9 } 
		.shp6 { fill: #7060a0 } 
		.shp7 { fill: #dedffd } 
		.shp8 { fill: #443572 } 
		.shp9 { fill: #31275b } 
		.shp10 { fill: #b1aec1 } 
		.shp11 { fill: #e76d60 } 
		.shp12 { fill: #ffffff } 
		.shp13 { fill: #fcb187 } 
		.shp14 { fill: #f49677 } 
		.shp15 { fill: #4f4d6e } 
		.shp16 { fill: #fcccb1 } 
		.shp17 { fill: #ded8f9 } 
		.shp18 { fill: #f1effd } 
		.shp19 { fill: #a8a8e5 } 
		.shp20 { fill: #dbdbfd } 
		.shp21 { fill: #938aca } 
		.shp22 { fill: #ada5d8 } 
		.shp23 { fill: #c9c0ed } 
	</style>
	<g id="BACKGROUND">
	</g>
	<g id="OBJECTS">
		<g id="&lt;Group&gt;">
			<path id="&lt;Compound Path&gt;" class="shp0" d="M1255.52 349.08C1255.52 348.3 1256.15 347.67 1256.94 347.67C1257.73 347.67 1258.37 348.3 1258.37 349.08L1258.37 355.47C1258.37 356.26 1257.73 356.89 1256.94 356.89C1256.15 356.89 1255.52 356.26 1255.52 355.47L1255.52 349.08ZM1245.85 354.26C1245.3 353.71 1245.3 352.82 1245.85 352.25C1246.4 351.7 1247.31 351.7 1247.86 352.25L1252.38 356.77C1252.93 357.34 1252.93 358.23 1252.38 358.78C1251.8 359.33 1250.91 359.33 1250.37 358.78L1245.85 354.26ZM1242.67 364.77C1241.88 364.77 1241.25 364.14 1241.25 363.35C1241.25 362.58 1241.88 361.94 1242.67 361.94L1249.06 361.94C1249.83 361.94 1250.47 362.58 1250.47 363.35C1250.47 364.14 1249.83 364.77 1249.06 364.77L1242.67 364.77ZM1247.86 374.44C1247.31 375.01 1246.4 375.01 1245.85 374.44C1245.3 373.89 1245.3 373 1245.85 372.45L1250.37 367.93C1250.91 367.37 1251.8 367.37 1252.38 367.93C1252.93 368.48 1252.93 369.38 1252.38 369.94L1247.86 374.44ZM1258.37 377.62C1258.37 378.41 1257.73 379.05 1256.94 379.05C1256.15 379.05 1255.52 378.41 1255.52 377.62L1255.52 371.25C1255.52 370.46 1256.15 369.82 1256.94 369.82C1257.73 369.82 1258.37 370.46 1258.37 371.25L1258.37 377.62ZM1268.04 372.45C1268.59 373 1268.59 373.89 1268.04 374.44C1267.49 375.01 1266.58 375.01 1266.03 374.44L1261.51 369.94C1260.96 369.38 1260.96 368.48 1261.51 367.93C1262.06 367.37 1262.97 367.37 1263.52 367.93L1268.04 372.45ZM1271.21 361.94C1272 361.94 1272.64 362.58 1272.64 363.35C1272.64 364.14 1272 364.77 1271.21 364.77L1264.82 364.77C1264.05 364.77 1263.42 364.14 1263.42 363.35C1263.42 362.58 1264.05 361.94 1264.82 361.94L1271.21 361.94ZM1266.03 352.25C1266.58 351.7 1267.49 351.7 1268.04 352.25C1268.59 352.82 1268.59 353.71 1268.04 354.26L1263.52 358.78C1262.97 359.33 1262.06 359.33 1261.51 358.78C1260.96 358.23 1260.96 357.34 1261.51 356.77L1266.03 352.25Z" />
			<path id="&lt;Path&gt;" class="shp1" d="M338.75 110.44C251.68 110.44 180.46 181.68 180.46 268.75C180.46 355.81 251.68 427.05 338.75 427.05C356.23 427.05 370.52 441.35 370.52 458.82C370.52 476.3 356.23 490.59 338.75 490.59L255.92 490.59C213.45 490.59 178.69 525.33 178.69 567.82C178.69 610.29 213.45 645.04 255.92 645.04C292.66 645.04 322.71 675.09 322.71 711.83C322.71 778.86 377.55 833.7 444.56 833.7L481 833.7L1017.68 833.7L1159.93 833.7C1246.98 833.7 1318.22 762.46 1318.22 675.38C1318.22 588.33 1246.98 517.09 1159.93 517.09L1048.29 517.09C1030.83 517.09 1016.52 502.79 1016.52 485.32C1016.52 467.83 1030.83 453.55 1048.29 453.55L1076.65 453.55C1119.12 453.55 1153.88 418.8 1153.88 376.31C1153.88 333.9 1119.21 299.17 1076.79 299.1C1076.75 299.1 1068.63 299.1 1068.6 299.1C1031.86 299.1 1001.8 269.05 1001.8 232.31C1001.8 165.28 946.97 110.44 879.94 110.44C761.01 110.44 457.68 110.44 338.75 110.44Z" />
			<path id="&lt;Path&gt;" class="shp1" d="M1256.94 455.56C1299.19 455.56 1333.45 421.31 1333.45 379.05C1333.45 336.8 1299.19 302.54 1256.94 302.54C1214.7 302.54 1180.43 336.8 1180.43 379.05C1180.43 421.31 1214.7 455.56 1256.94 455.56Z" />
			<g id="&lt;Group&gt;">
				<path id="&lt;Path&gt;" class="shp2" d="M368.24 196.73L442.36 196.73L442.36 219.19L368.24 219.19L368.24 196.73Z" />
				<path id="&lt;Path&gt;" class="shp2" d="M258.15 223.69L332.29 223.69L332.29 246.15L258.15 246.15L258.15 223.69Z" />
				<path id="&lt;Path&gt;" class="shp2" d="M335.81 223.69L409.94 223.69L409.94 246.15L335.81 246.15L335.81 223.69Z" />
				<path id="&lt;Path&gt;" class="shp2" d="M290.58 250.64L364.7 250.64L364.7 273.1L290.58 273.1L290.58 250.64Z" />
				<path id="&lt;Path&gt;" class="shp2" d="M258.15 277.6L332.29 277.6L332.29 300.06L258.15 300.06L258.15 277.6Z" />
				<path id="&lt;Path&gt;" class="shp2" d="M335.81 277.6L409.94 277.6L409.94 300.06L335.81 300.06L335.81 277.6Z" />
			</g>
			<path id="&lt;Path&gt;" class="shp2" d="M416.31 689.72L490.45 689.72L490.45 712.17L416.31 712.17L416.31 689.72Z" />
			<path id="&lt;Path&gt;" class="shp2" d="M493.97 689.72L568.11 689.72L568.11 712.17L493.97 712.17L493.97 689.72Z" />
			<path id="&lt;Path&gt;" class="shp2" d="M383.9 716.67L458.02 716.67L458.02 739.13L383.9 739.13L383.9 716.67Z" />
			<path id="&lt;Path&gt;" class="shp2" d="M461.56 716.67L535.68 716.67L535.68 739.13L461.56 739.13L461.56 716.67Z" />
			<path id="&lt;Path&gt;" class="shp2" d="M493.97 743.63L568.11 743.63L568.11 766.1L493.97 766.1L493.97 743.63Z" />
			<path id="&lt;Path&gt;" class="shp2" d="M383.9 770.58L458.02 770.58L458.02 793.04L383.9 793.04L383.9 770.58Z" />
			<path id="&lt;Path&gt;" class="shp2" d="M461.56 770.58L535.68 770.58L535.68 793.04L461.56 793.04L461.56 770.58Z" />
			<g id="&lt;Group&gt;">
				<path id="&lt;Path&gt;" class="shp2" d="M542.26 178.64L868.57 178.64C876.9 178.64 883.7 185.46 883.7 193.77L883.7 659.21L895.31 659.21C900.89 659.21 905.46 663.79 905.46 669.38L905.46 710.93C905.46 716.52 900.89 721.09 895.31 721.09L515.52 721.09C509.94 721.09 505.37 716.52 505.37 710.93L505.37 669.38C505.37 663.79 509.94 659.21 515.52 659.21L527.13 659.21L527.13 193.77C527.13 185.46 533.95 178.64 542.26 178.64Z" />
				<path id="&lt;Path&gt;" class="shp3" d="M533.95 175.14L860.26 175.14C868.59 175.14 875.39 181.94 875.39 190.25L875.39 662.9C875.39 671.21 868.59 678.01 860.26 678.01L533.95 678.01C525.62 678.01 518.82 671.21 518.82 662.9L518.82 190.25C518.82 181.94 525.62 175.14 533.95 175.14Z" />
				<path id="&lt;Path&gt;" class="shp4" d="M546.47 438.13L546.47 635.35L847.74 635.35L847.74 438.13L546.47 438.13Z" />
				<g id="&lt;Group&gt;">
					<path id="&lt;Path&gt;" class="shp5" d="M546.47 202.77L546.47 443.24L847.74 443.24L847.74 202.77L546.47 202.77Z" />
					<path id="&lt;Compound Path&gt;" class="shp6" d="M576.18 232.48L576.18 308.15L682.25 308.15L682.25 232.48L576.18 232.48ZM576.18 337.86L576.18 413.53L682.25 413.53L682.25 337.86L576.18 337.86ZM711.96 413.53L818.03 413.53L818.03 337.86L711.96 337.86L711.96 413.53ZM818.03 308.15L818.03 232.48L711.96 232.48L711.96 308.15L818.03 308.15Z" />
					<path id="&lt;Compound Path&gt;" fill-rule="evenodd" class="shp2" d="M806 289.52L787.37 308.15L738.05 308.15L801.11 245.09L806 245.09L806 289.52ZM759.5 245.09L780.86 245.09L717.8 308.15L711.96 308.15L711.96 292.63L759.5 245.09ZM625.02 400.93L603.66 400.93L666.72 337.86L682.25 337.86L682.25 343.7L625.02 400.93ZM682.25 400.93L645.27 400.93L682.25 363.95L682.25 400.93ZM757.66 337.86L711.96 383.56L711.96 337.86L757.66 337.86Z" />
				</g>
				<path id="&lt;Path&gt;" class="shp7" d="M507.21 655.7L887 655.7C892.58 655.7 897.14 660.27 897.14 665.85L897.14 707.41C897.14 713 892.58 717.58 887 717.58L507.21 717.58C501.63 717.58 497.06 713 497.06 707.41L497.06 665.85C497.06 660.27 501.63 655.7 507.21 655.7Z" />
				<g id="&lt;Group&gt;">
					<path id="&lt;Path&gt;" class="shp8" d="M707.48 463.04L703.55 463.46L701.12 463.37L698.7 463.27L694.82 462.55L672.63 439.84L621.62 462.31C623.19 542.47 614.81 580.09 604.96 635.35L759.93 635.35C760.13 611.55 769.73 576.29 771.74 557.16L780.47 468.56L731.38 442.14L707.48 463.04Z" />
					<path id="&lt;Path&gt;" class="shp9" d="M716.85 635.35L744.83 635.35C750.89 630.34 756.8 625.91 760.58 624.15C762.8 601.5 770.02 573.47 771.74 557.16L771.98 554.65C771.36 548.54 770.68 541.94 769.92 534.83C767.11 508.54 773.22 491.02 779.28 480.6L780.47 468.56L731.38 442.14L723.65 448.91L720.99 461.58C738.68 475.23 748.6 485.79 750.74 493.25C753.93 504.45 742.74 581.51 734.75 614.77C732.79 622.92 725.99 629.72 716.85 635.35Z" />
					<path id="&lt;Path&gt;" class="shp9" d="M621.67 465.53C622.48 514.79 619.48 547.83 614.7 579.23C632.06 514.31 639.78 480.96 637.85 479.19C635.6 477.11 632.79 474.77 621.67 465.53Z" />
					<path id="&lt;Path&gt;" class="shp10" d="M729.17 436.46C711.32 427.89 693.75 427.2 675.29 434.33L678.11 442.85L725.7 444.72L729.17 436.46Z" />
					<path id="&lt;Path&gt;" class="shp9" d="M707.48 463.04L703.55 463.46L698.7 463.27L694.82 462.55L679.91 447.29L677.58 447.91L672.36 454.25C679.2 471.99 682.83 481.16 683.25 481.76C683.88 482.67 685.03 483.17 686.82 481.18C688 479.84 690.45 477 694.18 472.64C695.26 471.6 696.02 471.71 696.45 472.95C696.89 474.19 699.83 473.23 705.28 470.09L705.78 471.87C706.62 470.92 707.43 471.1 708.18 472.4C709.3 474.36 714.88 482.83 715.27 483.21C715.67 483.6 717.42 484.89 718.78 482.37C720 480.05 734.63 450.44 737.17 445.27L731.38 442.14L707.48 463.04Z" />
					<path id="&lt;Path&gt;" class="shp9" d="M707.48 463.04L703.55 463.46L698.7 463.27L694.82 462.55L693.34 461.04L689.86 466.53C694.64 468.29 696.95 471.3 696.78 475.55L682.76 635.35L690.49 635.35L704.51 475.86C704.87 471.62 707.41 468.8 712.11 467.41L709.07 461.65L707.48 463.04Z" />
					<path id="&lt;Path&gt;" class="shp11" d="M703.73 397.18C714.97 397.63 723.81 407.19 723.36 418.42L722.3 445.46C721.85 456.69 712.3 465.52 701.05 465.09C689.82 464.64 680.99 455.08 681.42 443.84L682.49 416.81C682.94 405.58 692.5 396.73 703.73 397.18Z" />
					<path id="&lt;Path&gt;" class="shp9" d="M696.47 460.72L698.82 460.43C699.12 460.78 699.28 461.23 699.3 461.79C699.33 462.35 699.32 463.46 699.29 465.12C698.41 465.4 693.79 466.15 693.96 465.5C693.98 465.4 694.82 463.8 696.47 460.72Z" />
					<path id="&lt;Path&gt;" class="shp9" d="M705.98 461.1L703.66 460.62C703.34 460.94 703.15 461.38 703.08 461.95C703.01 462.51 702.93 463.61 702.82 465.26C703.66 465.96 708.23 466.72 708.11 466.07C708.09 465.96 707.38 464.31 705.98 461.1Z" />
					<path id="&lt;Path&gt;" class="shp12" d="M729.17 436.46C729.43 436.7 732.12 441.88 733.53 444.39C734.39 445.77 734.44 447.56 733.68 449.79C732.93 452.02 727.81 462.2 718.31 480.32C717.65 481.28 716.84 481.27 715.88 480.27C714.9 479.27 710.83 472.73 703.66 460.62L726.28 438.57C727.35 437.32 728.93 436.22 729.17 436.46Z" />
					<path id="&lt;Path&gt;" class="shp12" d="M675.29 434.33C675.1 434.41 671.91 439.52 670.31 441.9C669.35 443.21 669.16 445 669.75 447.28C670.33 449.56 674.63 460.11 682.66 478.93C683.24 479.93 684.06 479.97 685.1 479.05C686.14 478.13 690.72 471.93 698.82 460.43L678.01 436.66C676.62 434.9 675.46 434.24 675.29 434.33Z" />
					<path id="&lt;Path&gt;" class="shp11" d="M663.32 371.68C663.01 371.68 662.7 371.68 662.4 371.69L662.38 371.69C656.71 372.06 651.83 376.28 650.87 382.12C649.74 388.92 654.34 395.33 661.14 396.46C667.94 397.58 674.35 392.97 675.48 386.17C676.12 382.22 674.85 378.41 672.32 375.68C672.1 379.37 670.88 383.79 666.16 383.56L667.32 376.47C667.8 373.6 665.3 371.88 663.32 371.68Z" />
					<path id="&lt;Path&gt;" class="shp11" d="M752.39 384.61C752.68 384.7 752.97 384.8 753.26 384.9L753.28 384.9C758.62 386.86 762.09 392.29 761.35 398.18C760.49 405 754.26 409.84 747.42 408.98C740.59 408.12 735.75 401.89 736.6 395.05C737.1 391.08 739.42 387.79 742.62 385.88C741.77 389.49 741.69 394.07 746.27 395.21L747.18 388.06C747.55 385.18 750.43 384.25 752.39 384.61Z" />
					<path id="&lt;Path&gt;" class="shp13" d="M716.8 316.5C693.57 313.13 671.79 329.38 668.42 352.62L662.84 391.05C659.46 414.29 675.72 436.06 698.96 439.43C722.2 442.81 743.95 426.55 747.34 403.31L752.92 364.89C756.29 341.66 740.04 319.88 716.8 316.5Z" />
					<path id="&lt;Path&gt;" class="shp14" d="M693 438.13C694.92 438.69 696.91 439.14 698.96 439.43C722.2 442.81 743.95 426.55 747.34 403.31L752.92 364.89C753.93 357.94 753.18 351.12 751.01 344.89C739.63 341.5 729.09 338.44 719.4 335.72C683.51 335.68 667.49 340.62 671.33 350.54L672.85 353.01C675.95 350.19 680.23 349.45 685.72 350.78C693.96 352.79 721.3 359.9 730.34 363.25C739.37 366.61 741.77 373.33 740.42 382.45C739.04 391.55 740 395.15 742.25 396.67C739.94 424.31 723.52 438.13 693 438.13Z" />
					<path id="&lt;Path&gt;" class="shp12" d="M692.53 407.09C691.42 413.09 695.39 418.86 701.38 419.97C707.39 421.09 713.14 417.12 714.26 411.13L714.24 411.13C714.43 410.1 713.75 409.08 712.71 408.9L694.79 405.56C693.75 405.37 692.74 406.06 692.55 407.09L692.53 407.09Z" />
					<path id="&lt;Path&gt;" class="shp12" d="M695.01 416.3C696.61 418.15 698.8 419.49 701.38 419.97C703.49 420.37 705.57 420.13 707.42 419.4C707.01 417.02 704.88 414.89 701.96 414.24C699.18 413.62 696.47 414.49 695.01 416.3Z" />
					<path id="&lt;Path&gt;" class="shp12" d="M712.96 408.96L696.09 405.84C695.47 407.64 695.99 409.68 697.17 410.34C698.6 411.11 710.86 413.07 711.91 412.26C712.41 411.87 712.75 410.39 712.96 408.96Z" />
					<path id="&lt;Path&gt;" class="shp11" d="M728.74 402.75C725.68 402.25 722.8 404.33 722.28 407.38C721.78 410.44 723.86 413.33 726.92 413.84C729.98 414.34 732.86 412.26 733.36 409.2C733.87 406.15 731.8 403.26 728.74 402.75Z" />
					<path id="&lt;Path&gt;" class="shp11" d="M681.08 394.9C678.02 394.4 675.14 396.48 674.62 399.54C674.13 402.59 676.19 405.48 679.26 405.99C682.32 406.49 685.2 404.41 685.7 401.36C686.22 398.3 684.14 395.41 681.08 394.9Z" />
					<path id="&lt;Compound Path&gt;" class="shp9" d="M688.72 390C688.86 388.95 688.6 387.91 687.97 387.07C687.35 386.22 686.42 385.68 685.37 385.52C684.33 385.37 683.28 385.64 682.44 386.26C681.6 386.89 681.05 387.82 680.89 388.87C680.77 389.69 680 390.26 679.17 390.14C678.35 390.02 677.77 389.25 677.89 388.42C678.16 386.59 679.14 384.94 680.62 383.82C682.11 382.72 683.96 382.24 685.8 382.52C687.66 382.77 689.29 383.75 690.41 385.25C691.52 386.74 691.99 388.59 691.73 390.43C691.61 391.26 690.84 391.84 689.99 391.72C689.17 391.6 688.6 390.83 688.72 390ZM732.24 396.32C732.4 395.28 732.14 394.23 731.5 393.39C730.87 392.55 729.94 392 728.91 391.84C727.86 391.69 726.82 391.96 725.97 392.58C725.13 393.21 724.58 394.14 724.43 395.19C724.31 396.01 723.54 396.6 722.71 396.48C721.87 396.36 721.3 395.58 721.42 394.74C721.68 392.91 722.66 391.26 724.15 390.14C725.65 389.04 727.5 388.56 729.34 388.83C731.18 389.09 732.83 390.07 733.94 391.57C735.06 393.06 735.52 394.92 735.25 396.75C735.13 397.59 734.35 398.16 733.53 398.04C732.7 397.92 732.12 397.15 732.24 396.32ZM735.56 382.7C732.57 380.71 728.67 379.71 725.25 381.16C724.48 381.48 723.59 381.11 723.26 380.33C722.93 379.58 723.31 378.69 724.09 378.36C728.31 376.59 733.6 377.59 737.27 380.21C737.96 380.69 738.13 381.64 737.65 382.33C737.17 383.01 736.23 383.18 735.56 382.7ZM681.61 374.87C680.81 375.13 679.95 374.7 679.69 373.91C679.43 373.12 679.86 372.26 680.65 372C684.93 370.53 690.27 371.06 693.84 373.96C694.48 374.5 694.58 375.46 694.05 376.09C693.53 376.75 692.57 376.85 691.92 376.31C689.03 373.96 685.03 373.81 681.61 374.87Z" />
					<path id="&lt;Path&gt;" class="shp9" d="M663.87 383.94C668.33 382.84 671.08 378.69 672.13 371.49C673.7 360.67 673.3 363.33 674.13 357.7C674.95 352.06 680.29 342.76 691.73 344.42C699.35 345.53 706.22 346.53 712.32 347.41C718.42 348.29 725.29 349.29 732.91 350.4C744.33 352.06 746.82 362.51 746 368.14C745.19 373.77 745.57 371.11 744.01 381.93C742.95 389.13 744.41 393.9 748.37 396.22C749.2 390.51 750.65 386.65 752.71 384.66C753.82 377.01 754.87 369.85 755.84 363.16C757.3 353.15 756.44 339.27 744.63 328.11C736.75 320.68 727.55 316.25 717.04 314.83C706.58 313.21 696.51 314.84 686.83 319.73C672.34 327.04 667.56 340.11 666.1 350.14C665.13 356.82 664.09 363.98 662.98 371.63C664.4 374.12 664.7 378.23 663.87 383.94Z" />
					<path id="&lt;Path&gt;" class="shp8" d="M691.73 344.42C704.54 358.41 720.6 361.31 739.9 353.1C748.16 348.23 753.57 347.66 756.13 351.38C761.89 336.32 758.29 326.85 745.35 322.96C748.32 321.47 749.72 319.75 749.55 317.82C749.31 314.9 742.89 306.21 722.87 310.57C723.31 305.78 721.39 302.68 717.11 301.3C710.7 299.22 689.29 306.49 684.19 321.19C681.42 328.39 683.93 336.13 691.73 344.42Z" />
					<path id="&lt;Path&gt;" class="shp15" d="M757.83 337.18C757.7 336.13 757.47 335.08 757.16 334.05C751.56 336.99 739.56 341.01 720.91 336.15C704.42 331.87 703.08 315.28 704.52 303.05C698.62 305.25 692.17 309.13 687.92 314.52C687.95 320.52 691.02 329.22 704.59 338.39C723.81 351.36 748.11 341.93 757.83 337.18Z" />
					<path id="&lt;Path&gt;" class="shp13" d="M509.2 286.39L509.27 289.67C510.35 290.05 511.28 291.13 512.07 292.9C512.87 294.68 513.46 296.22 513.82 297.52L530.96 291.3L531.03 289.96L529.67 285.88C529.42 285.4 529.43 284.99 529.69 284.66L521 280.83L509.2 286.39Z" />
					<path id="&lt;Path&gt;" class="shp8" d="M669.4 441.27C614.73 412.69 583.06 393.55 574.4 383.84C561.38 369.29 555.31 348.91 535.48 290.65C535 288.84 533.36 288.04 530.55 288.23C526.33 288.5 514.51 292.68 512.9 294.67C511.26 296.66 510.37 298.69 510.95 301.44C511.54 304.18 534.93 394.9 541.56 408.46C548.2 422.03 608.23 477.85 620.71 490.87C629.04 499.54 645.27 483.01 669.4 441.27Z" />
					<path id="&lt;Path&gt;" class="shp9" d="M527.1 288.85C521.86 290.13 514.18 293.09 512.9 294.67C511.26 296.66 510.37 298.69 510.95 301.44C511.54 304.18 534.93 394.9 541.56 408.46C548.2 422.03 608.23 477.85 620.71 490.87C624.61 494.94 630.83 491.6 637.55 485.11C638.09 481.69 638.25 479.55 637.85 479.19C634.97 476.52 631.14 473.42 610.03 455.83C588.92 438.24 556.14 408.02 550.71 396.84C545.27 385.64 528.47 326.48 523.05 308.74C517.81 291.66 526.43 289.02 527.1 288.85Z" />
					<path id="&lt;Path&gt;" class="shp13" d="M534.16 266.86C535.34 260.44 538.88 255.94 540.34 254.43C542.25 252.42 533.09 246.86 529.52 256.51C527.37 258.94 525.67 259.79 524.44 259.09C522.6 258.02 519.66 229.79 519.34 226.71C519.03 223.62 515.44 223.4 514.48 224.27C513.53 225.15 514.05 229.62 514.32 235.3C514.6 241 514.84 247.42 514.34 247.99C513.86 248.56 512.55 248.56 511.2 245.5C509.82 242.43 502.93 225.25 501.41 224.41C499.88 223.55 497.06 225.13 497.32 228.02C497.59 230.9 505.2 247.97 505.48 250.46C505.75 252.97 503.28 252.85 502.16 251.49C501.04 250.14 490.19 232.79 488.78 231.95C487.38 231.11 484.56 232.81 485.61 235.73C486.65 238.65 496.36 255.68 496.29 257.13C496.24 258.55 494.35 259.65 491.19 257.42C488.01 255.19 481.98 249.81 480.8 249.76C479.63 249.71 478.1 253.32 480.92 256.18C483.73 259.05 490.47 266.4 491.32 267.62C495.86 274.03 498.19 281.1 502.44 285.62C503.96 287.25 505.96 288.49 508.19 289.31C513.5 291.27 520.14 290.94 525.24 288.2C534.09 283.4 532.51 275.71 534.16 266.86Z" />
					<path id="&lt;Path&gt;" class="shp13" d="M670.93 651.07L665.5 655.7L620.25 655.7C621.42 651.97 622.99 649.52 624.97 648.35C625.76 647.97 626.66 647.79 627.65 647.79C628.58 646.56 629.75 645.65 631.16 645.07C633.29 644.2 643.83 641.64 649.34 640.68C654.87 639.71 660.21 641.64 662.86 641.64C664.62 641.64 666.86 641.45 669.57 641.07L670.93 651.07Z" />
					<path id="&lt;Path&gt;" class="shp8" d="M780.47 468.56C786.02 472.47 790.12 480.34 792.78 492.17C796.78 509.93 806.86 600.11 808.77 615.77C810.69 631.45 810.06 655.7 775.52 655.7C740.98 655.7 697.17 655.7 683.42 655.7C674.25 655.7 668.27 655.7 665.5 655.7C665.5 647.82 665.5 642.45 665.5 639.61C665.5 635.35 668.22 633.93 671.02 633.93C673.82 633.93 757.85 624.8 761.85 623.69C765.83 622.57 767.76 620.34 767.91 615.53C768.09 610.74 754.33 555.25 751.44 534.47C748.57 513.69 760.71 467.96 780.47 468.56Z" />
					<path id="&lt;Path&gt;" class="shp9" d="M809.37 623.48C809.7 638.32 804.75 655.7 775.52 655.7C740.98 655.7 697.17 655.7 683.42 655.7C674.25 655.7 668.27 655.7 665.5 655.7L665.5 643.06C668.2 646.43 673.61 650.27 684.21 650.27C703.08 650.27 756.98 650.27 770.88 650.27C784.14 650.27 808.89 640.68 809.37 623.48Z" />
					<path id="&lt;Path&gt;" class="shp9" d="M751.44 534.47C753.4 548.52 760.3 578.43 764.53 597.82C766.55 607.12 767.96 613.99 767.91 615.53C767.78 619.95 766.14 622.2 762.78 623.4C771.11 622.02 773.93 618.13 775.35 612.85C776.59 608.37 775.49 589.52 771.98 554.65C771.36 548.54 770.68 541.93 769.92 534.83C767.11 508.54 773.22 491.02 779.28 480.6C781.14 477.4 782.99 474.86 784.57 472.95C783.04 470.87 781.67 469.4 780.47 468.56C760.71 467.96 748.57 513.69 751.44 534.47Z" />
					<path id="&lt;Path&gt;" class="shp16" d="M697.43 400.03C699.94 397.42 701.59 395.77 702.39 395.07C703.6 394.04 703.84 395.22 703.7 396.79C703.56 398.35 703.96 401.36 703.11 402.06C702.27 402.78 698.12 402.06 697.24 401.7C696.66 401.47 696.72 400.92 697.43 400.03Z" />
				</g>
			</g>
			<path id="&lt;Compound Path&gt;" class="shp0" d="M421.05 488.48C421.05 487.79 421.6 487.23 422.29 487.23C422.99 487.23 423.54 487.79 423.54 488.48L423.54 494.1C423.54 494.78 422.99 495.35 422.29 495.35C421.6 495.35 421.05 494.78 421.05 494.1L421.05 488.48ZM412.53 493.05C412.05 492.55 412.05 491.76 412.53 491.28C413.01 490.78 413.8 490.78 414.3 491.28L418.27 495.25C418.76 495.73 418.76 496.51 418.27 497.01C417.79 497.5 417 497.5 416.5 497.01L412.53 493.05ZM409.73 502.29C409.04 502.29 408.49 501.72 408.49 501.03C408.49 500.35 409.04 499.78 409.73 499.78L415.35 499.78C416.05 499.78 416.6 500.35 416.6 501.03C416.6 501.72 416.05 502.29 415.35 502.29L409.73 502.29ZM414.3 510.79C413.8 511.29 413.01 511.29 412.53 510.79C412.05 510.31 412.05 509.52 412.53 509.04L416.5 505.05C417 504.57 417.79 504.57 418.27 505.05C418.76 505.55 418.76 506.34 418.27 506.82L414.3 510.79ZM423.54 513.59C423.54 514.27 422.99 514.84 422.29 514.84C421.6 514.84 421.05 514.27 421.05 513.59L421.05 507.97C421.05 507.28 421.6 506.71 422.29 506.71C422.99 506.71 423.54 507.28 423.54 507.97L423.54 513.59ZM432.06 509.04C432.54 509.52 432.54 510.31 432.06 510.79C431.56 511.29 430.77 511.29 430.29 510.79L426.32 506.82C425.82 506.34 425.82 505.55 426.32 505.05C426.8 504.57 427.59 504.57 428.07 505.05L432.06 509.04ZM434.84 499.78C435.54 499.78 436.09 500.35 436.09 501.03C436.09 501.72 435.54 502.29 434.84 502.29L429.22 502.29C428.54 502.29 427.99 501.72 427.99 501.03C427.99 500.35 428.54 499.78 429.22 499.78L434.84 499.78ZM430.29 491.28C430.77 490.78 431.56 490.78 432.06 491.28C432.54 491.76 432.54 492.55 432.06 493.05L428.07 497.01C427.59 497.5 426.8 497.5 426.32 497.01C425.82 496.51 425.82 495.73 426.32 495.25L430.29 491.28Z" />
			<g id="&lt;Group&gt;">
				<path id="&lt;Path&gt;" class="shp17" d="M176.99 704.86L184.05 704.86C185.34 704.86 186.4 705.92 186.4 707.21L186.4 714.29C186.4 715.57 185.34 716.64 184.05 716.64L176.99 716.64C175.68 716.64 174.64 715.57 174.64 714.29L174.64 707.21C174.64 705.92 175.68 704.86 176.99 704.86Z" />
				<path id="&lt;Path&gt;" class="shp17" d="M201.12 704.86L208.19 704.86C209.48 704.86 210.55 705.92 210.55 707.21L210.55 714.29C210.55 715.57 209.48 716.64 208.19 716.64L201.12 716.64C199.83 716.64 198.77 715.57 198.77 714.29L198.77 707.21C198.77 705.92 199.83 704.86 201.12 704.86Z" />
				<path id="&lt;Path&gt;" class="shp17" d="M225.25 704.86L232.32 704.86C233.61 704.86 234.68 705.92 234.68 707.21L234.68 714.29C234.68 715.57 233.61 716.64 232.32 716.64L225.25 716.64C223.96 716.64 222.89 715.57 222.89 714.29L222.89 707.21C222.89 705.92 223.96 704.86 225.25 704.86Z" />
				<path id="&lt;Path&gt;" class="shp17" d="M249.39 704.86L256.45 704.86C257.76 704.86 258.81 705.92 258.81 707.21L258.81 714.29C258.81 715.57 257.76 716.64 256.45 716.64L249.39 716.64C248.09 716.64 247.04 715.57 247.04 714.29L247.04 707.21C247.04 705.92 248.09 704.86 249.39 704.86Z" />
			</g>
			<path id="&lt;Compound Path&gt;" class="shp0" d="M331.16 158.34C331.16 157.65 331.71 157.11 332.41 157.11C333.1 157.11 333.65 157.65 333.65 158.34L333.65 163.96C333.65 164.65 333.1 165.21 332.41 165.21C331.71 165.21 331.16 164.65 331.16 163.96L331.16 158.34ZM322.64 162.91C322.16 162.41 322.16 161.62 322.64 161.14C323.14 160.66 323.93 160.66 324.41 161.14L328.38 165.11C328.88 165.61 328.88 166.4 328.38 166.88C327.9 167.36 327.11 167.36 326.63 166.88L322.64 162.91ZM319.86 172.15C319.16 172.15 318.61 171.58 318.61 170.9C318.61 170.21 319.16 169.66 319.86 169.66L325.48 169.66C326.16 169.66 326.71 170.21 326.71 170.9C326.71 171.58 326.16 172.15 325.48 172.15L319.86 172.15ZM324.41 180.67C323.93 181.15 323.14 181.15 322.64 180.67C322.16 180.17 322.16 179.38 322.64 178.9L326.63 174.91C327.11 174.44 327.9 174.44 328.38 174.91C328.88 175.41 328.88 176.2 328.38 176.68L324.41 180.67ZM333.65 183.45C333.65 184.14 333.1 184.7 332.41 184.7C331.71 184.7 331.16 184.14 331.16 183.45L331.16 177.83C331.16 177.15 331.71 176.6 332.41 176.6C333.1 176.6 333.65 177.15 333.65 177.83L333.65 183.45ZM342.17 178.9C342.65 179.38 342.65 180.17 342.17 180.67C341.69 181.15 340.88 181.15 340.4 180.67L336.43 176.68C335.93 176.2 335.93 175.41 336.43 174.91C336.91 174.44 337.7 174.44 338.2 174.91L342.17 178.9ZM344.97 169.66C345.65 169.66 346.2 170.21 346.2 170.9C346.2 171.58 345.65 172.15 344.97 172.15L339.35 172.15C338.65 172.15 338.1 171.58 338.1 170.9C338.1 170.21 338.65 169.66 339.35 169.66L344.97 169.66ZM340.4 161.14C340.88 160.66 341.69 160.66 342.17 161.14C342.65 161.62 342.65 162.41 342.17 162.91L338.2 166.88C337.7 167.36 336.91 167.36 336.43 166.88C335.93 166.4 335.93 165.61 336.43 165.11L340.4 161.14Z" />
			<g id="&lt;Group&gt;">
				<path id="&lt;Path&gt;" class="shp18" d="M389.35 399.74L396.42 399.74C397.71 399.74 398.77 400.8 398.77 402.09L398.77 409.17C398.77 410.46 397.71 411.52 396.42 411.52L389.35 411.52C388.06 411.52 386.99 410.46 386.99 409.17L386.99 402.09C386.99 400.8 388.06 399.74 389.35 399.74Z" />
				<path id="&lt;Path&gt;" class="shp18" d="M413.49 399.74L420.55 399.74C421.86 399.74 422.9 400.8 422.9 402.09L422.9 409.17C422.9 410.46 421.86 411.52 420.55 411.52L413.49 411.52C412.19 411.52 411.14 410.46 411.14 409.17L411.14 402.09C411.14 400.8 412.19 399.74 413.49 399.74Z" />
				<path id="&lt;Path&gt;" class="shp18" d="M437.62 399.74L444.7 399.74C445.99 399.74 447.05 400.8 447.05 402.09L447.05 409.17C447.05 410.46 445.99 411.52 444.7 411.52L437.62 411.52C436.33 411.52 435.27 410.46 435.27 409.17L435.27 402.09C435.27 400.8 436.33 399.74 437.62 399.74Z" />
				<path id="&lt;Path&gt;" class="shp18" d="M461.77 399.74L468.83 399.74C470.12 399.74 471.18 400.8 471.18 402.09L471.18 409.17C471.18 410.46 470.12 411.52 468.83 411.52L461.77 411.52C460.46 411.52 459.41 410.46 459.41 409.17L459.41 402.09C459.41 400.8 460.46 399.74 461.77 399.74Z" />
			</g>
			<g id="&lt;Group&gt;">
				<path id="&lt;Path&gt;" class="shp2" d="M1072.73 299.1L1072.73 453.55L1048.29 453.55C1030.83 453.55 1016.52 467.83 1016.52 485.32C1016.52 502.79 1030.83 517.09 1048.29 517.09L1072.73 517.09L1072.73 833.7L1017.68 833.7L932.82 833.7L932.82 122.59C973.55 142.37 1001.8 184.19 1001.8 232.31C1001.8 269.05 1031.86 299.1 1068.6 299.1L1072.73 299.1Z" />
				<path id="&lt;Path&gt;" class="shp7" d="M945.03 129.42L945.03 833.7L920.61 833.7L920.61 117.47C929.23 120.54 937.42 124.58 945.03 129.42Z" />
				<path id="&lt;Path&gt;" class="shp7" d="M975.2 156.54L975.2 833.7L950.77 833.7L950.77 133.3C959.93 139.9 968.16 147.73 975.2 156.54Z" />
				<path id="&lt;Path&gt;" class="shp7" d="M1005.38 253.81L1005.38 833.7L980.94 833.7L980.94 164.34C994.09 183.78 1001.8 207.19 1001.8 232.31C1001.8 239.82 1003.06 247.05 1005.38 253.81Z" />
				<path id="&lt;Path&gt;" class="shp7" d="M1035.55 290.29L1035.55 456.24C1024.38 461.17 1016.52 472.37 1016.52 485.32C1016.52 498.27 1024.38 509.46 1035.55 514.39L1035.55 833.7L1017.68 833.7L1011.11 833.7L1011.11 266.21C1017.04 276.19 1025.47 284.5 1035.55 290.29Z" />
				<path id="&lt;Compound Path&gt;" class="shp7" d="M1065.73 299.03L1065.73 453.55L1048.29 453.55C1045.89 453.55 1043.54 453.82 1041.29 454.34L1041.29 293.23C1048.81 296.61 1057.05 298.66 1065.73 299.03ZM1065.73 517.09L1065.73 833.7L1041.29 833.7L1041.29 516.3C1043.54 516.82 1045.89 517.09 1048.29 517.09L1065.73 517.09Z" />
			</g>
			<g id="&lt;Group&gt;">
				<path id="&lt;Path&gt;" class="shp18" d="M738.24 777.16L745.31 777.16C746.6 777.16 747.66 778.2 747.66 779.51L747.66 786.57C747.66 787.87 746.6 788.92 745.31 788.92L738.24 788.92C736.95 788.92 735.88 787.87 735.88 786.57L735.88 779.51C735.88 778.2 736.95 777.16 738.24 777.16Z" />
				<path id="&lt;Path&gt;" class="shp18" d="M762.38 777.16L769.44 777.16C770.75 777.16 771.79 778.2 771.79 779.51L771.79 786.57C771.79 787.87 770.75 788.92 769.44 788.92L762.38 788.92C761.08 788.92 760.03 787.87 760.03 786.57L760.03 779.51C760.03 778.2 761.08 777.16 762.38 777.16Z" />
				<path id="&lt;Path&gt;" class="shp18" d="M786.51 777.16L793.59 777.16C794.88 777.16 795.94 778.2 795.94 779.51L795.94 786.57C795.94 787.87 794.88 788.92 793.59 788.92L786.51 788.92C785.22 788.92 784.16 787.87 784.16 786.57L784.16 779.51C784.16 778.2 785.22 777.16 786.51 777.16Z" />
				<path id="&lt;Path&gt;" class="shp18" d="M810.66 777.16L817.72 777.16C819.02 777.16 820.07 778.2 820.07 779.51L820.07 786.57C820.07 787.87 819.02 788.92 817.72 788.92L810.66 788.92C809.36 788.92 808.3 787.87 808.3 786.57L808.3 779.51C808.3 778.2 809.36 777.16 810.66 777.16Z" />
			</g>
			<g id="&lt;Group&gt;">
				<path id="&lt;Path&gt;" class="shp18" d="M778.73 136.33L785.81 136.33C787.09 136.33 788.16 137.37 788.16 138.68L788.16 145.74C788.16 147.04 787.09 148.09 785.81 148.09L778.73 148.09C777.45 148.09 776.38 147.04 776.38 145.74L776.38 138.68C776.38 137.37 777.45 136.33 778.73 136.33Z" />
				<path id="&lt;Path&gt;" class="shp18" d="M802.88 136.33L809.93 136.33C811.23 136.33 812.29 137.37 812.29 138.68L812.29 145.74C812.29 147.04 811.23 148.09 809.93 148.09L802.88 148.09C801.57 148.09 800.53 147.04 800.53 145.74L800.53 138.68C800.53 137.37 801.57 136.33 802.88 136.33Z" />
				<path id="&lt;Path&gt;" class="shp18" d="M827.01 136.33L834.07 136.33C835.37 136.33 836.44 137.37 836.44 138.68L836.44 145.74C836.44 147.04 835.37 148.09 834.07 148.09L827.01 148.09C825.72 148.09 824.66 147.04 824.66 145.74L824.66 138.68C824.66 137.37 825.72 136.33 827.01 136.33Z" />
				<path id="&lt;Path&gt;" class="shp18" d="M851.14 136.33L858.21 136.33C859.5 136.33 860.57 137.37 860.57 138.68L860.57 145.74C860.57 147.04 859.5 148.09 858.21 148.09L851.14 148.09C849.85 148.09 848.79 147.04 848.79 145.74L848.79 138.68C848.79 137.37 849.85 136.33 851.14 136.33Z" />
			</g>
			<g id="&lt;Group&gt;">
				<path id="&lt;Path&gt;" class="shp18" d="M1117.59 571.77L1124.65 571.77C1125.94 571.77 1127 572.82 1127 574.13L1127 581.18C1127 582.47 1125.94 583.54 1124.65 583.54L1117.59 583.54C1116.29 583.54 1115.24 582.47 1115.24 581.18L1115.24 574.13C1115.24 572.82 1116.29 571.77 1117.59 571.77Z" />
				<path id="&lt;Path&gt;" class="shp18" d="M1141.72 571.77L1148.8 571.77C1150.09 571.77 1151.15 572.82 1151.15 574.13L1151.15 581.18C1151.15 582.47 1150.09 583.54 1148.8 583.54L1141.72 583.54C1140.43 583.54 1139.37 582.47 1139.37 581.18L1139.37 574.13C1139.37 572.82 1140.43 571.77 1141.72 571.77Z" />
				<path id="&lt;Path&gt;" class="shp18" d="M1165.86 571.77L1172.93 571.77C1174.21 571.77 1175.28 572.82 1175.28 574.13L1175.28 581.18C1175.28 582.47 1174.21 583.54 1172.93 583.54L1165.86 583.54C1164.56 583.54 1163.5 582.47 1163.5 581.18L1163.5 574.13C1163.5 572.82 1164.56 571.77 1165.86 571.77Z" />
				<path id="&lt;Path&gt;" class="shp18" d="M1190 571.77L1197.06 571.77C1198.36 571.77 1199.41 572.82 1199.41 574.13L1199.41 581.18C1199.41 582.47 1198.36 583.54 1197.06 583.54L1190 583.54C1188.71 583.54 1187.64 582.47 1187.64 581.18L1187.64 574.13C1187.64 572.82 1188.71 571.77 1190 571.77Z" />
			</g>
			<g id="&lt;Group&gt;">
				<path id="&lt;Path&gt;" class="shp8" d="M294.49 815.39C294.46 801.17 296.02 784.8 299.99 766.13C300.02 766 300.06 765.84 300.09 765.7C300.28 764.95 300.86 763.5 302.38 763.92C304.4 764.46 320.99 773.79 336.5 789.57C352.01 805.36 351.75 781.62 338.29 772.28C324.84 762.94 311.08 759 306.96 755.43C304.2 753.05 303.07 750.5 303.56 747.77C306.77 729.69 309.18 711.16 310.86 692.9L310.88 692.88C311.39 690.23 312.91 690.46 315.43 693.57C319.22 698.26 333.89 714.51 345.31 715.57C356.73 716.65 346.27 698.55 330.15 689.67C314.02 680.79 312.05 678.91 312.2 676.74L312.2 676.72C313.23 662.35 313.83 648.28 314.05 634.89C314.49 633.28 315.42 633.06 316.84 634.22C318.95 635.97 335.01 654.31 343.56 652.37C352.11 650.41 343.8 634.78 330.16 629.31C316.53 623.83 314.16 622.18 314.14 620.15C314 580.5 310.5 548.55 305.23 534.97C299.75 520.82 334.56 552.83 366.74 605.07C369.51 609.83 369.32 612.56 367.54 618.33C365.61 624.52 363.5 638.46 368.55 635.21C373.6 631.98 374.28 619.72 374.7 619.5C375 619.31 375.23 619.5 375.31 619.6C380.59 628.95 385.65 638.79 390.36 649C395.2 660.48 388.73 668.31 379.71 679.5C370.37 691.11 372.05 703.45 381.98 698.26C391.9 693.09 396.52 668.96 397.35 668.31C398.1 667.72 398.65 668.6 398.74 668.77C405.3 685.67 410.54 703.34 413.71 721.29C414.38 730.22 407.1 737.62 399.46 749.7C391.77 761.87 397.67 769.21 403.75 767.54C409.82 765.86 413.92 751.04 415.24 750.07C416.46 749.18 416.84 749.93 416.89 750.07C417.58 767.47 415.95 784.89 411.26 801.89C407.14 816.81 402.81 829.57 398.36 840.45L319.55 840.45L294.49 815.39Z" />
				<path id="&lt;Path&gt;" class="shp9" d="M386.08 840.45C375.74 702.46 340.3 582.95 340.13 582.34C339.63 580.69 337.91 579.74 336.26 580.22C334.61 580.7 333.67 582.44 334.15 584.09C334.32 584.69 369.58 703.5 379.92 840.45L386.08 840.45Z" />
				<path id="&lt;Path&gt;" class="shp19" d="M451.09 650.7C510.85 615.31 527.36 688.97 515.25 722.34C506.27 747.04 474.43 801.15 452 840.45L368.62 840.45C379.44 757.87 407.1 676.76 451.09 650.7Z" />
				<path id="&lt;Path&gt;" class="shp20" d="M404.92 840.45C435.34 743.91 481.91 664.05 482.15 663.62C482.84 662.43 484.58 661.83 486 662.3C487.44 662.76 488.04 664.1 487.36 665.3C487.12 665.71 440.95 744.86 410.68 840.45L404.92 840.45Z" />
				<path id="&lt;Path&gt;" class="shp18" d="M194.99 608.47C213.41 538.82 278.37 576.96 306.26 636.5C322.01 670.11 349.28 758.78 379.97 840.45L302.03 840.45L278.87 827.44C224.96 726.63 187.62 636.29 194.99 608.47Z" />
				<path id="&lt;Path&gt;" class="shp12" d="M321.01 823.7C261.76 711.31 230.86 602.19 230.71 601.64C230.26 600.09 231.16 598.5 232.68 598.05C234.23 597.6 235.84 598.5 236.27 600.02C236.45 600.63 270.4 720.48 335.16 837.83L321.01 823.7Z" />
			</g>
			<g id="&lt;Group&gt;">
				<path id="&lt;Path&gt;" class="shp2" d="M1223.56 620.24L1297.68 620.24L1297.68 642.7L1223.56 642.7L1223.56 620.24Z" />
				<path id="&lt;Path&gt;" class="shp2" d="M1191.13 647.2L1265.27 647.2L1265.27 669.66L1191.13 669.66L1191.13 647.2Z" />
				<path id="&lt;Path&gt;" class="shp2" d="M1268.79 647.2L1315.7 647.2C1317.02 654.52 1317.84 662.02 1318.12 669.66L1268.79 669.66L1268.79 647.2Z" />
				<path id="&lt;Path&gt;" class="shp2" d="M1223.56 674.14L1297.68 674.14L1297.68 696.61L1223.56 696.61L1223.56 674.14Z" />
				<path id="&lt;Path&gt;" class="shp2" d="M1301.22 674.14L1318.2 674.14C1318.22 674.56 1318.22 674.97 1318.22 675.38C1318.22 682.58 1317.74 689.67 1316.79 696.61L1301.22 696.61L1301.22 674.14Z" />
				<path id="&lt;Path&gt;" class="shp2" d="M1268.79 701.11L1316.11 701.11C1314.84 708.79 1313.02 716.29 1310.68 723.57L1268.79 723.57L1268.79 701.11Z" />
				<path id="&lt;Compound Path&gt;" class="shp0" d="M1144.49 724.95C1144.49 724.26 1145.05 723.7 1145.74 723.7C1146.43 723.7 1147 724.26 1147 724.95L1147 730.56C1147 731.25 1146.43 731.82 1145.74 731.82C1145.05 731.82 1144.49 731.25 1144.49 730.56L1144.49 724.95ZM1135.98 729.5C1135.49 729.02 1135.49 728.23 1135.98 727.73C1136.46 727.25 1137.26 727.25 1137.75 727.73L1141.72 731.71C1142.2 732.2 1142.2 732.98 1141.72 733.48C1141.23 733.96 1140.43 733.96 1139.95 733.48L1135.98 729.5ZM1133.19 738.76C1132.5 738.76 1131.93 738.19 1131.93 737.5C1131.93 736.82 1132.5 736.25 1133.19 736.25L1138.8 736.25C1139.49 736.25 1140.05 736.82 1140.05 737.5C1140.05 738.19 1139.49 738.76 1138.8 738.76L1133.19 738.76ZM1137.75 747.26C1137.26 747.75 1136.46 747.75 1135.98 747.26C1135.49 746.78 1135.49 745.99 1135.98 745.49L1139.95 741.52C1140.43 741.04 1141.23 741.04 1141.72 741.52C1142.2 742 1142.2 742.79 1141.72 743.29L1137.75 747.26ZM1147 750.06C1147 750.74 1146.43 751.31 1145.74 751.31C1145.05 751.31 1144.49 750.74 1144.49 750.06L1144.49 744.44C1144.49 743.75 1145.05 743.19 1145.74 743.19C1146.43 743.19 1147 743.75 1147 744.44L1147 750.06ZM1155.5 745.49C1155.99 745.99 1155.99 746.78 1155.5 747.26C1155.02 747.75 1154.23 747.75 1153.74 747.26L1149.76 743.29C1149.28 742.79 1149.28 742 1149.76 741.52C1150.26 741.04 1151.05 741.04 1151.53 741.52L1155.5 745.49ZM1158.3 736.25C1158.98 736.25 1159.55 736.82 1159.55 737.5C1159.55 738.19 1158.98 738.76 1158.3 738.76L1152.68 738.76C1151.99 738.76 1151.43 738.19 1151.43 737.5C1151.43 736.82 1151.99 736.25 1152.68 736.25L1158.3 736.25ZM1153.74 727.73C1154.23 727.25 1155.02 727.25 1155.5 727.73C1155.99 728.23 1155.99 729.02 1155.5 729.5L1151.53 733.48C1151.05 733.96 1150.26 733.96 1149.76 733.48C1149.28 732.98 1149.28 732.2 1149.76 731.71L1153.74 727.73Z" />
				<path id="&lt;Path&gt;" class="shp9" d="M1278.21 610.55C1295.45 666.52 1301.89 696.94 1311.14 722.1C1315.75 707.31 1318.22 691.63 1318.22 675.38L1318.22 595.08C1318.22 449.08 1256.94 541.58 1278.21 610.55Z" />
				<path id="&lt;Path&gt;" class="shp8" d="M1064.52 823.51C1051.08 805.58 1037.36 781.89 1029.16 752.91C1014.89 702.48 1073.47 758.35 1119.69 823.51L1064.52 823.51Z" />
				<path id="&lt;Path&gt;" class="shp8" d="M1145.07 823.51C1130.64 799.12 1116.32 767.02 1114.07 733.24C1109.33 662.16 1107.97 639.82 1094.43 628.31C1082.82 618.43 1222.85 620.55 1281.57 776.4C1264.15 797.32 1241.47 813.72 1215.61 823.51L1145.07 823.51Z" />
				<path id="&lt;Path&gt;" class="shp4" d="M1114.5 625.84C1167.52 674.06 1209.21 745.37 1239.79 811.92C1238.33 812.78 1236.85 813.62 1235.37 814.42C1204.05 746.09 1160.96 672.72 1105.96 625.01C1108.49 625.13 1111.36 625.41 1114.5 625.84Z" />
				<path id="&lt;Path&gt;" class="shp2" d="M1264.91 547.75C1276.61 576.55 1293.85 641.14 1314.23 710.66C1305.93 746.86 1285.07 778.45 1256.58 800.53C1207.19 730.01 1164.18 649.9 1148.11 586.37C1115.77 458.53 1216.38 428.06 1264.91 547.75Z" />
				<path id="&lt;Path&gt;" class="shp21" d="M1285.04 772.07C1216.65 652.49 1184.8 512.18 1184.66 511.58C1184.33 510.2 1185.19 508.83 1186.57 508.52C1187.94 508.2 1189.31 509.05 1189.64 510.43C1189.78 511.03 1221.19 649.35 1288.34 767.68C1287.25 769.15 1286.15 770.63 1285.04 772.07Z" />
				<path id="&lt;Path&gt;" class="shp21" d="M1218.97 822.19C1216.45 810.58 1212.52 798.04 1206.5 785.4C1183.71 737.55 1126.73 718.94 1110.52 726.22C1097.27 732.18 1070.61 769.07 1090.51 823.51L1215.61 823.51C1216.74 823.08 1217.86 822.65 1218.97 822.19Z" />
				<path id="&lt;Path&gt;" class="shp22" d="M1185.95 823.51C1188.85 815.7 1194.84 798.52 1195.63 788.15C1195.7 787.34 1195.1 786.64 1194.29 786.59C1193.5 786.52 1192.8 787.12 1192.73 787.93C1192.01 797.59 1186.51 813.57 1183.56 821.62C1176.89 808.52 1168.77 794.78 1158.9 780.88C1164.1 760.81 1163.5 745.95 1163.5 745.9C1163.46 745.09 1162.8 744.48 1161.99 744.49C1161.18 744.53 1160.56 745.2 1160.58 746C1160.6 746.05 1161.13 759.38 1156.68 777.81C1145.46 762.42 1132.09 746.88 1116.1 731.87C1114.93 730.77 1113.08 730.82 1111.98 732.01C1110.88 733.18 1110.95 735.01 1112.11 736.11C1119.91 743.43 1127.05 750.86 1133.63 758.35C1127.73 757.27 1118.71 756.13 1109.76 757.03C1108.97 757.11 1108.39 757.82 1108.45 758.63C1108.54 759.42 1109.25 760 1110.05 759.91C1120.82 758.85 1131.73 760.82 1136.74 761.94C1146.86 773.77 1155.55 785.68 1163 797.36C1152.59 796.36 1127.04 794.68 1102.24 799.23C1101.45 799.38 1100.93 800.14 1101.07 800.93C1101.23 801.71 1101.98 802.23 1102.77 802.09C1129.27 797.21 1156.71 799.59 1164.98 800.5C1169.85 808.31 1174.18 816.02 1178.01 823.51L1185.95 823.51Z" />
			</g>
			<g id="&lt;Group&gt;">
				<g id="&lt;Group&gt;">
					<path id="&lt;Path&gt;" class="shp17" d="M1083.63 213.99L1091.67 213.99C1093.14 213.99 1094.35 215.19 1094.35 216.66L1094.35 224.69C1094.35 226.16 1093.14 227.37 1091.67 227.37L1083.63 227.37C1082.15 227.37 1080.95 226.16 1080.95 224.69L1080.95 216.66C1080.95 215.19 1082.15 213.99 1083.63 213.99Z" />
					<path id="&lt;Path&gt;" class="shp17" d="M1111.07 213.99L1119.09 213.99C1120.57 213.99 1121.77 215.19 1121.77 216.66L1121.77 224.69C1121.77 226.16 1120.57 227.37 1119.09 227.37L1111.07 227.37C1109.59 227.37 1108.39 226.16 1108.39 224.69L1108.39 216.66C1108.39 215.19 1109.59 213.99 1111.07 213.99Z" />
					<path id="&lt;Path&gt;" class="shp17" d="M1138.5 213.99L1146.54 213.99C1148.02 213.99 1149.21 215.19 1149.21 216.66L1149.21 224.69C1149.21 226.16 1148.02 227.37 1146.54 227.37L1138.5 227.37C1137.04 227.37 1135.84 226.16 1135.84 224.69L1135.84 216.66C1135.84 215.19 1137.04 213.99 1138.5 213.99Z" />
					<path id="&lt;Path&gt;" class="shp17" d="M1165.95 213.99L1173.98 213.99C1175.45 213.99 1176.64 215.19 1176.64 216.66L1176.64 224.69C1176.64 226.16 1175.45 227.37 1173.98 227.37L1165.95 227.37C1164.47 227.37 1163.27 226.16 1163.27 224.69L1163.27 216.66C1163.27 215.19 1164.47 213.99 1165.95 213.99Z" />
				</g>
				<path id="&lt;Compound Path&gt;" class="shp23" d="M1288.98 200.87C1288.98 200.08 1289.61 199.44 1290.4 199.44C1291.19 199.44 1291.83 200.08 1291.83 200.87L1291.83 207.25C1291.83 208.03 1291.19 208.66 1290.4 208.66C1289.61 208.66 1288.98 208.03 1288.98 207.25L1288.98 200.87ZM1279.31 206.05C1278.76 205.49 1278.76 204.59 1279.31 204.04C1279.86 203.48 1280.77 203.48 1281.32 204.04L1285.84 208.56C1286.39 209.11 1286.39 210 1285.84 210.57C1285.27 211.12 1284.38 211.12 1283.83 210.57L1279.31 206.05ZM1276.13 216.55C1275.34 216.55 1274.71 215.91 1274.71 215.14C1274.71 214.35 1275.34 213.71 1276.13 213.71L1282.52 213.71C1283.3 213.71 1283.93 214.35 1283.93 215.14C1283.93 215.91 1283.3 216.55 1282.52 216.55L1276.13 216.55ZM1281.32 226.23C1280.77 226.78 1279.86 226.78 1279.31 226.23C1278.76 225.68 1278.76 224.77 1279.31 224.22L1283.83 219.71C1284.38 219.16 1285.27 219.16 1285.84 219.71C1286.39 220.25 1286.39 221.16 1285.84 221.72L1281.32 226.23ZM1291.83 229.41C1291.83 230.18 1291.19 230.82 1290.4 230.82C1289.61 230.82 1288.98 230.18 1288.98 229.41L1288.98 223.02C1288.98 222.23 1289.61 221.59 1290.4 221.59C1291.19 221.59 1291.83 222.23 1291.83 223.02L1291.83 229.41ZM1301.5 224.22C1302.05 224.77 1302.05 225.68 1301.5 226.23C1300.95 226.78 1300.04 226.78 1299.49 226.23L1294.97 221.72C1294.43 221.16 1294.43 220.25 1294.97 219.71C1295.52 219.16 1296.43 219.16 1296.98 219.71L1301.5 224.22ZM1304.68 213.71C1305.47 213.71 1306.1 214.35 1306.1 215.14C1306.1 215.91 1305.47 216.55 1304.68 216.55L1298.29 216.55C1297.52 216.55 1296.88 215.91 1296.88 215.14C1296.88 214.35 1297.52 213.71 1298.29 213.71L1304.68 213.71ZM1299.49 204.04C1300.04 203.48 1300.95 203.48 1301.5 204.04C1302.05 204.59 1302.05 205.49 1301.5 206.05L1296.98 210.57C1296.43 211.12 1295.52 211.12 1294.97 210.57C1294.43 210 1294.43 209.11 1294.97 208.56L1299.49 204.04Z" />
			</g>
			<path id="&lt;Compound Path&gt;" class="shp23" d="M185.04 453.15C185.04 452.36 185.68 451.73 186.47 451.73C187.24 451.73 187.88 452.36 187.88 453.15L187.88 459.54C187.88 460.31 187.24 460.95 186.47 460.95C185.68 460.95 185.04 460.31 185.04 459.54L185.04 453.15ZM175.37 458.34C174.81 457.79 174.81 456.88 175.37 456.33C175.92 455.78 176.82 455.78 177.38 456.33L181.88 460.85C182.45 461.4 182.45 462.29 181.88 462.85C181.33 463.4 180.44 463.4 179.89 462.85L175.37 458.34ZM172.2 468.85C171.41 468.85 170.77 468.21 170.77 467.42C170.77 466.63 171.41 466 172.2 466L178.59 466C179.36 466 179.99 466.63 179.99 467.42C179.99 468.21 179.36 468.85 178.59 468.85L172.2 468.85ZM177.38 478.52C176.82 479.07 175.92 479.07 175.37 478.52C174.81 477.97 174.81 477.06 175.37 476.51L179.89 471.99C180.44 471.44 181.33 471.44 181.88 471.99C182.45 472.54 182.45 473.45 181.88 474L177.38 478.52ZM187.88 481.69C187.88 482.48 187.24 483.12 186.47 483.12C185.68 483.12 185.04 482.48 185.04 481.69L185.04 475.31C185.04 474.53 185.68 473.88 186.47 473.88C187.24 473.88 187.88 474.53 187.88 475.31L187.88 481.69ZM197.56 476.51C198.11 477.06 198.11 477.97 197.56 478.52C197 479.07 196.1 479.07 195.55 478.52L191.04 474C190.49 473.45 190.49 472.54 191.04 471.99C191.59 471.44 192.5 471.44 193.05 471.99L197.56 476.51ZM200.74 466C201.51 466 202.15 466.63 202.15 467.42C202.15 468.21 201.51 468.85 200.74 468.85L194.35 468.85C193.56 468.85 192.93 468.21 192.93 467.42C192.93 466.63 193.56 466 194.35 466L200.74 466ZM195.55 456.33C196.1 455.78 197 455.78 197.56 456.33C198.11 456.88 198.11 457.79 197.56 458.34L193.05 462.85C192.5 463.4 191.59 463.4 191.04 462.85C190.49 462.29 190.49 461.4 191.04 460.85L195.55 456.33Z" />
			<g id="&lt;Group&gt;">
				<path id="&lt;Compound Path&gt;" fill-rule="evenodd" class="shp9" d="M127.96 824.97L1372.02 824.97C1380.85 824.97 1388.06 832.17 1388.06 840.99C1388.06 849.81 1380.85 857.03 1372.02 857.03L1317.95 857.03C1313.05 857.03 1309.05 861.03 1309.05 865.93C1309.05 870.82 1313.05 874.84 1317.95 874.84L1337.73 874.84C1343.86 874.84 1348.86 879.84 1348.86 885.97C1348.86 892.09 1343.86 897.09 1337.73 897.09L164.04 897.09C157.9 897.09 152.9 892.09 152.9 885.97C152.9 879.84 157.9 874.84 164.04 874.84L179.61 874.84C184.51 874.84 188.51 870.82 188.51 865.93C188.51 861.03 184.51 857.03 179.61 857.03L127.96 857.03C119.14 857.03 111.94 849.81 111.94 840.99C111.94 832.17 119.16 824.97 127.96 824.97ZM136.3 897.09C130.44 897.09 125.62 892.29 125.62 886.4L125.62 885.52C125.62 879.63 130.44 874.84 136.3 874.84C142.19 874.84 146.99 879.63 146.99 885.52L146.99 886.4C146.99 892.29 142.19 897.09 136.3 897.09Z" />
			</g>
		</g>
	</g>
	<g id="DESIGNED BY FREEPIK">
	</g>
</svg>